<?xml version="1.0" standalone="no"?>
<!DOCTYPE svg PUBLIC "-//W3C//DTD SVG 20010904//EN"
 "http://www.w3.org/TR/2001/REC-SVG-20010904/DTD/svg10.dtd">
<svg version="1.0" xmlns="http://www.w3.org/2000/svg"
 width="512.000000pt" height="512.000000pt" viewBox="0 0 512.000000 512.000000"
 preserveAspectRatio="xMidYMid meet">

<g transform="translate(0.000000,512.000000) scale(0.100000,-0.100000)"
fill="#4B39EF" stroke="none">
<path d="M789 4785 c-193 -36 -361 -125 -505 -269 -105 -105 -178 -218 -224
-343 -63 -174 -61 -120 -58 -1654 l3 -1394 22 -76 c101 -356 345 -601 702
-702 l76 -22 1714 -3 c1489 -2 1726 0 1802 13 380 65 686 355 776 735 17 69
18 146 18 930 0 784 -1 861 -18 930 -89 379 -395 669 -774 735 -67 12 -180 15
-523 15 -483 0 -540 5 -693 60 -170 62 -218 100 -612 489 -379 374 -440 425
-585 488 -173 74 -190 77 -640 79 -315 2 -422 0 -481 -11z m1886 -1920 c256
-67 415 -329 350 -580 -24 -91 -71 -169 -142 -235 -35 -33 -68 -60 -73 -60 -6
0 -10 -82 -10 -211 0 -252 -5 -275 -75 -344 -101 -102 -229 -102 -330 0 -70
69 -75 92 -75 344 0 129 -4 211 -10 211 -5 0 -38 27 -73 60 -200 187 -209 483
-20 681 118 124 296 176 458 134z"/>
<path d="M3285 4791 c-90 -22 -173 -90 -215 -176 -34 -69 -35 -198 -2 -265 34
-71 75 -113 144 -151 l63 -34 923 -3 922 -3 0 109 c0 173 -38 279 -137 383
-29 31 -80 71 -112 88 -117 62 -106 61 -866 60 -379 -1 -703 -4 -720 -8z"/>
</g>
</svg>
