<svg width="39" height="50" viewBox="0 0 39 50" fill="none" xmlns="http://www.w3.org/2000/svg">
<path d="M38.4793 12.5391L26.5577 0.524554C26.2253 0.189732 25.771 0 25.3001 0H1.77273C0.792187 0 0 0.797991 0 1.78571V48.2143C0 49.202 0.792187 50 1.77273 50H37.2273C38.2078 50 39 49.202 39 48.2143V13.8002C39 13.3259 38.8116 12.8739 38.4793 12.5391ZM13.2955 18.8616C14.5197 18.8616 15.5114 19.8605 15.5114 21.0937C15.5114 22.327 14.5197 23.3259 13.2955 23.3259C12.0712 23.3259 11.0795 22.327 11.0795 21.0937C11.0795 19.8605 12.0712 18.8616 13.2955 18.8616ZM29.6932 35.2679H9.30682C8.93565 35.2679 8.73068 34.8382 8.95781 34.548L14.4865 27.4498C14.528 27.3964 14.5809 27.3533 14.6414 27.3236C14.7019 27.2939 14.7682 27.2785 14.8355 27.2785C14.9028 27.2785 14.9692 27.2939 15.0296 27.3236C15.0901 27.3533 15.1431 27.3964 15.1845 27.4498L17.4614 30.3739L21.7713 24.8382C21.8128 24.7848 21.8657 24.7417 21.9262 24.712C21.9867 24.6823 22.053 24.6669 22.1203 24.6669C22.1876 24.6669 22.254 24.6823 22.3144 24.712C22.3749 24.7417 22.4279 24.7848 22.4693 24.8382L30.0311 34.548C30.2693 34.8382 30.0588 35.2679 29.6932 35.2679V35.2679ZM24.4858 14.6205V4.1183L34.9116 14.6205H24.4858Z" fill="white"/>
</svg>
