<svg width="43" height="50" viewBox="0 0 43 50" fill="none" xmlns="http://www.w3.org/2000/svg">
<path d="M11.0184 32C10.5147 32 10.1752 32.0404 10 32.0807V34.7219C10.2081 34.7623 10.4681 34.7735 10.8267 34.7735C12.138 34.7735 12.9456 34.2309 12.9456 33.3139C12.9456 32.4933 12.2503 32 11.0184 32V32ZM20.5642 32.0269C20.0167 32.0269 19.6608 32.0673 19.45 32.1076V37.9595C19.6608 37.9999 20.0003 37.9999 20.3069 37.9999C22.5435 38.0133 23.9998 37.0044 23.9998 34.8699C24.0163 33.0089 22.6886 32.0269 20.5642 32.0269V32.0269Z" fill="white"/>
<path d="M26.875 0H5.375C3.94946 0 2.58231 0.526784 1.5743 1.46447C0.566293 2.40215 0 3.67392 0 5V45C0 46.3261 0.566293 47.5979 1.5743 48.5355C2.58231 49.4732 3.94946 50 5.375 50H37.625C39.0505 50 40.4177 49.4732 41.4257 48.5355C42.4337 47.5979 43 46.3261 43 45V15L26.875 0ZM14.7759 35.475C13.9454 36.2 12.7199 36.525 11.2929 36.525C11.0162 36.5278 10.7396 36.5128 10.4651 36.48V40.045H8.0625V30.205C9.14678 30.0545 10.2424 29.986 11.3386 30C12.8355 30 13.8998 30.265 14.6173 30.7975C15.2999 31.3025 15.7622 32.13 15.7622 33.105C15.7595 34.085 15.4101 34.9125 14.7759 35.475V35.475ZM25.0072 38.8625C23.8784 39.735 22.1611 40.15 20.0622 40.15C18.8044 40.15 17.9149 40.075 17.3102 40V30.2075C18.3949 30.0602 19.4901 29.9909 20.5862 30C22.6207 30 23.9429 30.34 24.9749 31.065C26.0903 31.835 26.789 33.0625 26.789 34.825C26.789 36.7325 26.0392 38.05 25.0072 38.8625V38.8625ZM34.9375 31.925H30.8203V34.2025H34.6687V36.0375H30.8203V40.0475H28.3854V30.075H34.9375V31.925ZM26.875 17.5H24.1875V5L37.625 17.5H26.875Z" fill="white"/>
</svg>
