<svg width="40" height="50" viewBox="0 0 40 50" fill="none" xmlns="http://www.w3.org/2000/svg">
<path d="M39.4659 12.5391C39.8068 12.8739 40 13.3259 40 13.8002V48.2143C40 49.202 39.1875 50 38.1818 50H1.81818C0.8125 50 0 49.202 0 48.2143V1.78571C0 0.797991 0.8125 0 1.81818 0H25.9489C26.4318 0 26.8977 0.189732 27.2386 0.524554L39.4659 12.5391V12.5391ZM35.8068 14.6205L25.1136 4.1183V14.6205H35.8068ZM9.09091 23.3259C8.97036 23.3259 8.85474 23.3729 8.7695 23.4566C8.68425 23.5404 8.63636 23.6539 8.63636 23.7723V26.4509C8.63636 26.5693 8.68425 26.6828 8.7695 26.7666C8.85474 26.8503 8.97036 26.8973 9.09091 26.8973H30.9091C31.0296 26.8973 31.1453 26.8503 31.2305 26.7666C31.3157 26.6828 31.3636 26.5693 31.3636 26.4509V23.7723C31.3636 23.6539 31.3157 23.5404 31.2305 23.4566C31.1453 23.3729 31.0296 23.3259 30.9091 23.3259H9.09091ZM9.09091 30.9152C8.97036 30.9152 8.85474 30.9622 8.7695 31.0459C8.68425 31.1297 8.63636 31.2432 8.63636 31.3616V34.0402C8.63636 34.1586 8.68425 34.2721 8.7695 34.3559C8.85474 34.4396 8.97036 34.4866 9.09091 34.4866H19.5455C19.666 34.4866 19.7816 34.4396 19.8669 34.3559C19.9521 34.2721 20 34.1586 20 34.0402V31.3616C20 31.2432 19.9521 31.1297 19.8669 31.0459C19.7816 30.9622 19.666 30.9152 19.5455 30.9152H9.09091Z" fill="white"/>
</svg>
